Poster: 
http://imgh.us/The-Raven-2012.jpg

Format : AVI
Format/Info : Audio Video Interleave
File size : 442 MiB
Duration : 1h 45mn
Overall bit rate : 584 Kbps
Writing application : Lavf52.57.1

Video
ID : 0
Format : MPEG-4 Visual
Codec ID : FMP4
Duration : 1h 45mn
Bit rate : 477 Kbps
Width : 480 pixels
Height : 272 pixels
Display aspect ratio : 16:9
Frame rate : 15.000 fps
Color space : YUV
Chroma subsampling : 4:2:0
Compression mode : Lossy
Bits/(Pixel*Frame) : 0.244
Stream size : 362 MiB (82%)

Audio
ID : 1
Format : MPEG Audio
Format version : Version 2
Format profile : Layer 3
Mode : Joint stereo
Mode extension : MS Stereo
Codec ID : 55
Codec ID/Hint : MP3
Duration : 1h 45mn
Bit rate mode : Constant
Bit rate : 96.0 Kbps
Channel(s) : 2 channels
Sampling rate : 22.05 KHz
Compression mode : Lossy
Stream size : 72.7 MiB (16%)
Alignment : Aligned on interleaves
Interleave, duration : 26 ms (0.39 video frame)
Writing library : LAME3.98.4

SCREENS: 
http://imgh.us/The_Raven_2012_DVDRip_XviD_-_TWiZTED_Eng-Dub-007.jpg 
http://imgh.us/The_Raven_2012_DVDRip_XviD_-_TWiZTED_Eng-Dub-009.jpg 
http://imgh.us/The_Raven_2012_DVDRip_XviD_-_TWiZTED_Eng-Dub-011.jpg 
http://imgh.us/The_Raven_2012_DVDRip_XviD_-_TWiZTED_Eng-Dub-013.jpg 
http://imgh.us/The_Raven_2012_DVDRip_XviD_-_TWiZTED_Eng-Dub-015.jpg 
http://imgh.us/The_Raven_2012_DVDRip_XviD_-_TWiZTED_Eng-Dub-019.jpg